<svg width="20px" height="19px" viewBox="0 0 20 19" version="1.1" xmlns="http://www.w3.org/2000/svg">
    <g id="Symbols" stroke="none" stroke-width="1" fill="none" fill-rule="evenodd">
        <g id="maximize_map" transform="translate(-10.000000, -10.000000)" fill="#FFFFFF">
            <path
                d="M29.447,13.10575 L23.447,10.10575 C23.166,9.96475 22.834,9.96475 22.552,10.10575 L16.922,12.92075 L11.316,11.05175 C11.01,10.94975 10.676,11.00075 10.415,11.18975 C10.154,11.37775 10,11.67975 10,12.00075 L10,25.00175 C10,25.38075 10.214,25.72675 10.553,25.89575 L16.553,28.89575 C16.694,28.96575 16.847,29.00175 17,29.00175 C17.153,29.00175 17.307,28.96675 17.447,28.89575 L23.077,26.08175 L28.683,27.95075 C28.988,28.05075 29.323,27.99975 29.584,27.81175 C29.845,27.62375 29.999,27.32175 29.999,27.00175 L29.999,13.99975 C30,13.62075 29.786,13.27475 29.447,13.10575 L29.447,13.10575 L29.447,13.10575 L29.447,13.10575 Z M18,14.61875 L22,12.61875 L22,24.38175 L18,26.38175 L18,14.61875 L18,14.61875 L18,14.61875 L18,14.61875 Z M12,13.38775 L16,14.72075 L16,26.38175 L12,24.38175 L12,13.38775 L12,13.38775 L12,13.38775 L12,13.38775 Z M28,25.61475 L24,24.28075 L24,12.61875 L28,14.61875 L28,25.61475 L28,25.61475 L28,25.61475 L28,25.61475 Z"
                id="Shape" />
        </g>
    </g>
</svg>